<?xml version="1.0" encoding="utf-8"?>
<!-- Generator: Adobe Illustrator 25.3.1, SVG Export Plug-In . SVG Version: 6.00 Build 0)  -->
<svg version="1.1" id="Layer_2" xmlns="http://www.w3.org/2000/svg" xmlns:xlink="http://www.w3.org/1999/xlink" x="0px" y="0px"
	 viewBox="0 0 275 74.42" style="enable-background:new 0 0 275 74.42;" xml:space="preserve">
<style type="text/css">
	.st0{opacity:0.5;}
	.st1{display:none;fill:#FFFFFF;}
	.st2{fill:#FFFFFF;}
</style>
<g class="st0">
	<path d="M45.82,72.71h215.64c3.84-6.73,4.77-8.36,8.61-15.09L237,1.71H21.36c-3.84,6.73-4.77,8.36-8.61,15.09L45.82,72.71z"/>
</g>
<path class="st1" d="M45.82,72.71h215.64c3.84-6.73,4.77-8.36,8.61-15.09L237,1.71H21.36c-3.84,6.73-4.77,8.36-8.61,15.09
	L45.82,72.71z"/>
<path class="st2" d="M240.34,0H9.02C5,7.05,4.02,8.77,0,15.82l34.66,58.6h231.31c4.02-7.05,5-8.77,9.02-15.82L240.34,0z
	 M261.47,72.71H45.82L12.75,16.8c3.84-6.73,4.77-8.36,8.61-15.09H237l33.07,55.91C266.24,64.34,265.3,65.98,261.47,72.71z"/>
</svg>
